<?xml version="1.0"?>
<svg xmlns:rdf="http://www.w3.org/1999/02/22-rdf-syntax-ns#" xmlns="http://www.w3.org/2000/svg" xmlns:cc="http://creativecommons.org/ns#" xmlns:xlink="http://www.w3.org/1999/xlink" xmlns:dc="http://purl.org/dc/elements/1.1/" xmlns:svg="http://www.w3.org/2000/svg" id="svg2" viewBox="0 0 128 128" version="1.0">
  <defs id="defs4">
    <linearGradient id="linearGradient3049">
      <stop id="stop3051" stop-color="#cfc7a9" offset="0"/>
      <stop id="stop3053" stop-color="#eeebe0" offset="1"/>
    </linearGradient>
    <linearGradient id="linearGradient2320">
      <stop id="stop2322" stop-color="#6a3c1d" offset="0"/>
      <stop id="stop2324" stop-color="#8f5127" offset="1"/>
    </linearGradient>
    <linearGradient id="linearGradient3332">
      <stop id="stop3334" stop-color="#bb8f56" offset="0"/>
      <stop id="stop3336" stop-color="#d1af63" offset="1"/>
    </linearGradient>
    <linearGradient id="linearGradient2433" x1="15.481" xlink:href="#linearGradient2320" gradientUnits="userSpaceOnUse" x2="17.297" y1="108.41" y2="111.78"/>
    <linearGradient id="linearGradient2437" x1="49.658" xlink:href="#linearGradient2320" gradientUnits="userSpaceOnUse" x2="57.853" y1="98.554" y2="103.75"/>
    <linearGradient id="linearGradient2441" x1="87.085" xlink:href="#linearGradient2320" gradientUnits="userSpaceOnUse" x2="89.653" y1="84.916" y2="86.995"/>
    <linearGradient id="linearGradient2445" x1="71.735" xlink:href="#linearGradient2320" gradientUnits="userSpaceOnUse" x2="71.857" y1="93.294" y2="96.841"/>
    <linearGradient id="linearGradient2449" x1="108.49" xlink:href="#linearGradient2320" gradientUnits="userSpaceOnUse" x2="110.69" y1="60.515" y2="61.616"/>
    <linearGradient id="linearGradient2453" x1="56.303" xlink:href="#linearGradient2320" gradientUnits="userSpaceOnUse" x2="90.625" y1="89.947" y2="55.525"/>
    <linearGradient id="linearGradient2457" x1="102" xlink:href="#linearGradient2320" gradientUnits="userSpaceOnUse" x2="110.4" y1="89.441" y2="98.987"/>
    <linearGradient id="linearGradient2461" x1="112.52" xlink:href="#linearGradient2320" gradientUnits="userSpaceOnUse" x2="113.4" y1="94.023" y2="94.023"/>
    <linearGradient id="linearGradient2465" x1="103.77" xlink:href="#linearGradient2320" gradientUnits="userSpaceOnUse" x2="104.61" y1="89.175" y2="88.071"/>
    <linearGradient id="linearGradient2469" x1="95.238" xlink:href="#linearGradient2320" gradientUnits="userSpaceOnUse" x2="91.747" y1="61.399" y2="70.857"/>
    <linearGradient id="linearGradient3052" x1="87.504" xlink:href="#linearGradient2320" gradientUnits="userSpaceOnUse" x2="87.416" y1="58.394" y2="58.925"/>
    <linearGradient id="linearGradient3056" x1="91.791" xlink:href="#linearGradient2320" gradientUnits="userSpaceOnUse" x2="92.587" y1="56.096" y2="56.45"/>
    <linearGradient id="linearGradient3060" x1="99.437" xlink:href="#linearGradient2320" gradientUnits="userSpaceOnUse" x2="99.348" y1="58.527" y2="59.366"/>
    <linearGradient id="linearGradient3064" x1="101.43" xlink:href="#linearGradient2320" gradientUnits="userSpaceOnUse" x2="100.81" y1="65.112" y2="65.244"/>
    <linearGradient id="linearGradient3068" x1="101.07" xlink:href="#linearGradient2320" gradientUnits="userSpaceOnUse" x2="101.07" y1="70.835" y2="71.719"/>
    <linearGradient id="linearGradient3072" x1="85.251" xlink:href="#linearGradient2320" gradientUnits="userSpaceOnUse" x2="85.958" y1="66.769" y2="67.564"/>
    <linearGradient id="linearGradient3088" x1="92.675" xlink:href="#linearGradient2320" gradientUnits="userSpaceOnUse" x2="93.206" y1="64.427" y2="63.366"/>
    <linearGradient id="linearGradient3092" x1="96.741" xlink:href="#linearGradient2320" gradientUnits="userSpaceOnUse" x2="98.332" y1="62.615" y2="62.615"/>
    <linearGradient id="linearGradient3096" x1="86.93" xlink:href="#linearGradient2320" gradientUnits="userSpaceOnUse" x2="93.559" y1="70.017" y2="70.017"/>
    <linearGradient id="linearGradient3100" x1="83.875" xlink:href="#linearGradient2320" gradientUnits="userSpaceOnUse" x2="88" y1="53.125" y2="47.25"/>
    <linearGradient id="linearGradient3104" x1="24.75" xlink:href="#linearGradient2320" gradientUnits="userSpaceOnUse" x2="26.591" y1="61.312" y2="61.312"/>
    <linearGradient id="linearGradient3108" x1="31.781" xlink:href="#linearGradient2320" gradientUnits="userSpaceOnUse" x2="30.75" y1="69.156" y2="71.938"/>
    <linearGradient id="linearGradient3112" x1="38.219" xlink:href="#linearGradient2320" gradientUnits="userSpaceOnUse" x2="40.531" y1="39.516" y2="39.703"/>
    <linearGradient id="linearGradient3116" x1="49.763" xlink:href="#linearGradient2320" gradientUnits="userSpaceOnUse" x2="48.658" y1="53.135" y2="55.389"/>
    <linearGradient id="linearGradient3120" x1="57.452" xlink:href="#linearGradient2320" gradientUnits="userSpaceOnUse" x2="58.16" y1="41.954" y2="45.313"/>
    <linearGradient id="linearGradient3124" x1="79.726" xlink:href="#linearGradient2320" gradientUnits="userSpaceOnUse" x2="79.152" y1="34.706" y2="36.695"/>
    <linearGradient id="linearGradient2428" x1="33.986" xlink:href="#linearGradient3332" gradientUnits="userSpaceOnUse" x2="35.935" y1="79.901" y2="81.804"/>
    <linearGradient id="linearGradient3029" x1="54.659" xlink:href="#linearGradient2320" gradientUnits="userSpaceOnUse" x2="52.67" y1="26.314" y2="27.135"/>
    <linearGradient id="linearGradient3033" x1="89.859" xlink:href="#linearGradient3332" gradientUnits="userSpaceOnUse" x2="91.589" y1="34.724" y2="35.978"/>
    <linearGradient id="linearGradient3037" x1="97.968" xlink:href="#linearGradient3332" gradientUnits="userSpaceOnUse" x2="99.546" y1="28.086" y2="29.211"/>
    <linearGradient id="linearGradient3055" x1="38.834" xlink:href="#linearGradient3049" gradientUnits="userSpaceOnUse" x2="46.325" y1="24.22" y2="30.091"/>
    <linearGradient id="linearGradient3059" x1="37.578" xlink:href="#linearGradient3049" gradientUnits="userSpaceOnUse" x2="45.405" y1="42.811" y2="46.054"/>
    <linearGradient id="linearGradient3063" x1="24" xlink:href="#linearGradient3049" gradientUnits="userSpaceOnUse" x2="31.438" y1="53.924" y2="55.957"/>
    <linearGradient id="linearGradient3067" x1="24" xlink:href="#linearGradient3049" gradientUnits="userSpaceOnUse" x2="30.962" y1="62.032" y2="64.886"/>
    <filter id="filter3149" y="-.28906" width="1.2368" x="-.11841" height="1.5781">
      <feGaussianBlur id="feGaussianBlur3151" stdDeviation="0.7083243"/>
    </filter>
    <filter id="filter3189">
      <feGaussianBlur id="feGaussianBlur3191" stdDeviation="1.1213434"/>
    </filter>
  </defs>
  <g id="layer2" fill-rule="evenodd">
    <path id="path3091" filter="url(#filter3149)" fill-opacity=".66667" d="m101.71 95.654l-6.056-3.978 4.846-1.903 9.51 5.708-8.3 0.173z"/>
    <path id="path3069" filter="url(#filter3189)" fill-opacity=".70588" d="m37.189 101.54s-21.448-5.194-22.832-6.924c-0.865-1.08 11.822-9.881 21.496-16.291l-8.136-5.571-1.105 1.061-2.069-2.372 0.229-2.243 2.549 0.613 5.404-6.504 1.548 1.3-4.63 6.616 9.713 4.778c4.072-2.698 7.001-4.565 7.001-4.565l9.167 2.94 10.269-6.867-23.284-12.16-2.269 3.326-0.201-3.808 0.155-3.78 2.222 0.556 5.037-6.961 2.141 1.076-4.436 6.971 24.024 12.513 13.499-9.028s-1.903-2.594-2.076-3.286c-0.043-0.175 5.463-7.13 6.995-7.989l-18.019-10.219 3.309-1.101 16.412 7.244c3.435-1.534 4.843-3.754 6.612-4.454l-6.487 39.697-52.238 25.432z"/>
    <path id="path2431" fill="url(#linearGradient2433)" d="m9.1064 111.64l6.1156-3.62 6.832-3.98 3.373-1.81-2.274 4.14 3.485-1.72-0.692 1.99 1.816 0.17-1.73 1.82 0.26 1.03-3.46 0.44-2.421 0.78-3.2 1.55-4.325 2.16 0.346-1.55-1.556 0.08h-1.038l0.865-1.47-2.3966-0.01z"/>
    <path id="path2435" d="m27.703 96.444l9.357 0.489 8.623 0.551 10.274 0.366 9.724-0.122 5.932-0.061-4.954 1.101s-8.867 2.572-9.662 2.752-9.785 1.35-9.785 1.35-3.058-0.07-4.098-0.25c-1.039-0.18-5.504-1.34-5.87-1.53-0.367-0.18-5.81-2.322-5.81-2.322l-3.731-2.324z" fill="url(#linearGradient2437)"/>
    <path id="path2439" fill="url(#linearGradient2441)" d="m80.113 96.138l5.137-3.425s6.666-5.809 6.666-6.054 7.889-7.767 7.889-7.767l-0.367-2.935 1.162-1.223-0.795-0.917-0.367-2.202-8.5 9.296-10.947 11.069 0.122 4.158z"/>
    <path id="path2443" fill="url(#linearGradient2445)" d="m27.031 89.228c-0.673 0.367-8.379 3.73-8.379 3.73l3.853-0.306-1.162 1.651 2.141-0.061-3.364 2.447 5.626-0.123 12.17 0.184 12.659 0.978h14.188l7.889-0.367 7.828-1.162v-4.709l-14.065 2.263-8.379 0.184-9.112-0.49s-11.742-1.59-12.353-1.773c-0.612-0.184-9.602-2.263-9.54-2.446z"/>
    <path id="path2447" d="m102.31 68.374l4.47-5.627 6.17-8.684 2.82-5.32 0.36 1.284 0.06 1.407-2.44 5.381-3.49 7.156-1.53 2.996-2.44 0.061-0.98 1.468-3-0.122z" fill="url(#linearGradient2449)"/>
    <path id="path2451" fill="url(#linearGradient2453)" d="m27.589 89.341l7.006 1.902 10.551 1.903 9.081 0.778 7.112 0.019 5.54-0.234 9.662-1.168 3.718-0.606 10.252-10.688 4.192-4.274 3.696-4.013 1.454-1.583-0.445-0.369-2.259 0.89-2.42-2.057-3.485 6.238-2.141-5.443-6.727-0.305 4.77-5.688-3.832-7.396 7.196 1.831 2.874-7.583 1.896 6.299 11.31 1.835-5.38 2.079 0.67 7.155 2.94-3.608 5.26-6.605 5.63-9.418-1.23-6.543-2.81-6.177-4.71-4.648-4.46-2.63-3.184 1.223-2.691 1.652-3.853 2.874-4.77 6.421-0.244 0.795 4.831 5.382-5.626 3.792-7.706 6.054-14.799 13.209-4.037 3.364-7.033-3.18-5.932 2.018-6.176 3.608-3.058 2.018s-4.22 3.792-4.587 4.22-5.932 6.788-6.046 6.657z"/>
    <path id="path2455" d="m101.38 86.811l0.44 8.574 1.73 1.105 8.57 4.07 0.13-12.556-3.09 2.077-2.92-2.121-1.99 2.387-2.87-3.536z" fill="url(#linearGradient2457)"/>
    <path id="path2459" d="m112.03 100.29l0.4-12.683s1.46-0.708 1.46-0.531-0.53 13.924-0.53 13.924l-1.33-0.71z" fill="url(#linearGradient2461)"/>
    <path id="path2463" d="m101.29 86.281l1.02-0.442 2.52 3.314 1.32-1.502 1.51-0.619 2.16 2.386-0.75 0.663-2.69-2.165-1.95 2.386-3-3.314-0.14-0.707z" fill="url(#linearGradient2465)"/>
    <path id="path2467" d="m83.836 58.35l7.425 2.342 2.563-7.292 1.503 5.436 9.193 1.635-3.58 1.547-0.58 1.503 1.2 5.48 1.37 2.033-3.14-0.442-2.651 1.37-2.563-2.166-3.227 6.32-2.121-5.568-7.071-0.221 5.038-5.701-3.359-6.276z" fill="url(#linearGradient2469)"/>
    <path id="path2471" fill-opacity=".15686" d="m83.836 58.35l7.425 2.342 2.563-7.292 1.503 5.436 9.193 1.635-3.58 1.547-0.58 1.503 1.2 5.48 1.37 2.033-3.14-0.442-2.651 1.37-2.563-2.166-3.227 6.32-2.121-5.568-7.071-0.221 5.038-5.701-3.359-6.276z"/>
    <path id="path3050" d="m83.881 58.306l7.203 2.342-0.309-1.635-7.557-1.812 0.663 1.105z" fill="url(#linearGradient3052)"/>
    <path id="path3054" fill="url(#linearGradient3056)" d="m90.642 59.234l2.74-7.734 0.531 1.768-2.652 7.424-0.53-0.353-0.089-1.105z"/>
    <path id="path3058" d="m95.371 57.731l10.959 2.077-2.12 0.752-9.016-1.635-0.221-1.061 0.398-0.133z" fill="url(#linearGradient3060)"/>
    <path id="path3062" d="m101.12 62.018l-0.84 1.459 1.23 5.612 0.45-0.353-0.84-6.718z" fill="url(#linearGradient3064)"/>
    <path id="path3066" d="m99.349 70.99l0.711-0.398 2.74 0.53-0.14 1.282-3.311-1.414z" fill="url(#linearGradient3068)"/>
    <path id="path3070" d="m82.466 70.194l4.597-5.392 0.397 1.856-4.64 3.669-0.354-0.133z" fill="url(#linearGradient3072)"/>
    <path id="path3074" fill-opacity=".15686" d="m83.881 58.306l7.203 2.342-0.309-1.635-7.557-1.812 0.663 1.105z"/>
    <path id="path3076" fill-opacity=".15686" d="m90.642 59.234l2.74-7.734 0.531 1.768-2.652 7.424-0.53-0.353-0.089-1.105z"/>
    <path id="path3078" fill-opacity=".15686" d="m95.371 57.731l10.959 2.077-2.12 0.752-9.016-1.635-0.221-1.061 0.398-0.133z"/>
    <path id="path3080" fill-opacity=".15686" d="m101.12 62.018l-0.84 1.459 1.23 5.612 0.45-0.353-0.84-6.718z"/>
    <path id="path3082" fill-opacity=".15686" d="m99.349 70.99l0.711-0.398 2.74 0.53-0.14 1.282-3.311-1.414z"/>
    <path id="path3084" fill-opacity=".15686" d="m82.466 70.194l4.597-5.392 0.397 1.856-4.64 3.669-0.354-0.133z"/>
    <path id="path3086" d="m84.102 58.35l5.877 1.856 2.033 2.166 2.564 1.591 0.883 0.442 0.487 1.016 0.486 0.619 1.016 0.044 0.884-0.663 2.428 0.265 0.49 2.077-1.371 0.177-1.547-0.044-4.066-1.105-3.624-2.254-4.905-2.784-1.635-3.403z" fill="url(#linearGradient3088)"/>
    <path id="path3090" d="m96.034 59.101l-0.398 5.701 0.31 0.707 0.574 0.619 1.238-0.221 0.486-0.574 0.132-2.077 0.442-3.801-2.784-0.354z" fill="url(#linearGradient3092)"/>
    <path id="path3094" d="m86.93 70.327l5.524-3.315-0.398 1.282 1.017 0.353-0.707 0.486 1.193 0.442-3.491 3.447-0.928-2.386-2.21-0.309z" fill="url(#linearGradient3096)"/>
    <path id="path3098" d="m87.5 42.438l-4.875 12.187 4-2.75 6.063-4.187-4.75-5.438-0.438 0.188z" fill="url(#linearGradient3100)"/>
    <path id="path3102" d="m24.062 72.625l0.376-14.031 0.031-3.688v-0.656l0.156-4.25 0.156-0.375 0.531 0.313 0.313 0.031 0.187-1.844 0.25 0.187 0.5 1.094s0.813-0.625 0.626-0.406c-0.188 0.219-0.063 7.156-0.063 7.156l-1.031 0.313 0.344 0.562-1.594 0.313 2.344 0.968-0.032 8.219-0.312 7.969-0.5-1.062h-0.813l-0.5-0.782-0.812 0.219-0.157-0.25z" fill="url(#linearGradient3104)"/>
    <path id="path3106" fill="url(#linearGradient3108)" d="m39.969 72.469l-18.031-8.313-1.094 0.406 0.562 1.407-4.312-0.157-0.719 0.32 18.906 9.462 4.031 2.187 4.282-2.969-3.625-2.343z"/>
    <path id="path3110" d="m37.219 56.969l0.875-10.281 0.062-8.594 0.094-18.438-0.062-2 0.562 1.594 0.594-0.594 0.312 0.906 0.625-1.25 1.157 3.844-0.219 6.532-0.125 6.187-1.063 0.375 0.688 0.688-0.219 0.687 0.562 0.687-0.218 9.313-0.156 8.813-0.157 6.312-0.593-2.938-1.782-0.437-0.062-1.406-0.844 0.156-0.031-0.156z" fill="url(#linearGradient3112)"/>
    <path id="path3114" d="m73.407 62.593l-18.208-8.088-0.796 0.928-0.354 1.105-0.486-1.9-0.707 0.574-0.398-1.812-24.881-10.96 0.044 1.591-1.104 0.309 0.486 1.415-2.431-0.707 1.016 1.06 43.576 20.374 4.243-3.889z" fill="url(#linearGradient3116)"/>
    <path id="path3118" d="m48.967 42.882l22.628-2.784-3.227 2.254 2.21 0.442-3.668 0.751 1.326 0.928-18.208 2.873 2.651-1.812-1.944-0.354 1.591-1.016-3.359-1.282z" fill="url(#linearGradient3120)"/>
    <path id="path3122" d="m89.582 38.816l-11.535-5.436-1.105 3.226-0.088-2.695-0.619 0.442 0.088-1.768-3.8-1.68-1.901 0.045 0.928 1.149-1.767-0.398 0.221 1.016-1.37-0.176-1.415 0.486 20.241 9.457 2.122-3.668z" fill="url(#linearGradient3124)"/>
    <path id="path2426" d="m22.444 91.368l-0.428-1.835-1.223-0.489 5.993-5.382 8.134-7.46 5.993-4.404 5.687-3.363 0.578 1.23-2.94 2.854 1.47 1.167-2.249 1.298-2.421-1.211-3.546 2.724 1.989 0.995-1.989 1.643-1.903-1.124-2.724 2.508 1.816 1.124-2.162 1.989-1.73-0.908-2.767 2.292 1.946 1.341-1.341 1.643-2.119-1.211-3.157 2.249 1.471 1.384-2.378 0.946z" fill="url(#linearGradient2428)"/>
    <path id="path2430" fill-opacity=".15686" d="m22.444 91.368l-0.428-1.835-1.223-0.489 5.993-5.382 8.134-7.46 5.993-4.404 5.687-3.363 0.578 1.23-2.94 2.854 1.47 1.167-2.249 1.298-2.421-1.211-3.546 2.724 1.989 0.995-1.989 1.643-1.903-1.124-2.724 2.508 1.816 1.124-2.162 1.989-1.73-0.908-2.767 2.292 1.946 1.341-1.341 1.643-2.119-1.211-3.157 2.249 1.471 1.384-2.378 0.946z"/>
    <path id="path3015" fill-opacity=".15686" d="m84.102 58.35l5.877 1.856 2.033 2.166 2.564 1.591 0.883 0.442 0.487 1.016 0.486 0.619 1.016 0.044 0.884-0.663 2.428 0.265 0.49 2.077-1.371 0.177-1.547-0.044-4.066-1.105-3.624-2.254-4.905-2.784-1.635-3.403z"/>
    <path id="path3017" fill-opacity=".15686" d="m96.034 59.101l-0.398 5.701 0.31 0.707 0.574 0.619 1.238-0.221 0.486-0.574 0.132-2.077 0.442-3.801-2.784-0.354z"/>
    <path id="path3019" fill-opacity=".15686" d="m86.93 70.327l5.524-3.315-0.398 1.282 1.017 0.353-0.707 0.486 1.193 0.442-3.491 3.447-0.928-2.386-2.21-0.309z"/>
    <path id="path3021" fill-opacity=".15686" d="m84.102 58.35l5.877 1.856 2.033 2.166 2.564 1.591 0.883 0.442 0.487 1.016 0.486 0.619 1.016 0.044 0.884-0.663 2.428 0.265 0.49 2.077-1.371 0.177-1.547-0.044-4.066-1.105-3.624-2.254-4.905-2.784-1.635-3.403z"/>
    <path id="path3023" fill-opacity=".15686" d="m96.034 59.101l-0.398 5.701 0.31 0.707 0.574 0.619 1.238-0.221 0.486-0.574 0.132-2.077 0.442-3.801-2.784-0.354z"/>
    <path id="path3025" fill-opacity=".15686" d="m86.93 70.327l5.524-3.315-0.398 1.282 1.017 0.353-0.707 0.486 1.193 0.442-3.491 3.447-0.928-2.386-2.21-0.309z"/>
    <path id="path3027" d="m50.205 23.135l4.844 13.103 0.692-3.373 1.081 1.903 0.648-3.546-2.854-6.444-1.946 3.806-0.129-0.173h0.173l0.389-5.06-1.514-0.605-0.562-1.903-0.519-0.994-0.303 3.286z" fill="url(#linearGradient3029)"/>
    <path id="path3031" d="m90.119 38.141c-0.433-0.173-2.335-1.298-2.335-1.298l-2.162 2.811-0.476-0.865-1.081 0.216 0.432-1.34 1.644-2.335 2.335-2.335 4.108-3.2 0.562 0.691 0.086 0.519-0.518 0.606 1.772 1.816-1.124 0.995-2.162-1.471-1.427 1.817 1.73 1.816-1.384 1.557z" fill="url(#linearGradient3033)"/>
    <path id="path3035" fill="url(#linearGradient3037)" d="m99.849 29.924l-1.427-0.865 1.948-2.335s-1.084-0.173-1.084-0.346-0.216-1.081-0.216-1.081l-3.502 4.627 1.037-0.086 0.237 0.9 0.801-0.641 0.779 0.692 1.638-0.865h-0.211z"/>
    <path id="path3039" fill-opacity=".15686" d="m90.119 38.141c-0.433-0.173-2.335-1.298-2.335-1.298l-2.162 2.811-0.476-0.865-1.081 0.216 0.432-1.34 1.644-2.335 2.335-2.335 4.108-3.2 0.562 0.691 0.086 0.519-0.518 0.606 1.772 1.816-1.124 0.995-2.162-1.471-1.427 1.817 1.73 1.816-1.384 1.557z"/>
    <path id="path3041" fill-opacity=".15686" d="m99.849 29.924l-1.427-0.865 1.948-2.335s-1.084-0.173-1.084-0.346-0.216-1.081-0.216-1.081l-3.502 4.627 1.037-0.086 0.237 0.9 0.801-0.641 0.779 0.692 1.638-0.865h-0.211z"/>
    <path id="path3043" fill-opacity=".15686" d="m27.703 96.444l9.357 0.489 8.623 0.551 10.274 0.366 9.724-0.122 5.932-0.061-4.954 1.101s-8.867 2.572-9.662 2.752-9.785 1.35-9.785 1.35-3.058-0.07-4.098-0.25c-1.039-0.18-5.504-1.34-5.87-1.53-0.367-0.18-5.81-2.322-5.81-2.322l-3.731-2.324z"/>
    <path id="path3045" fill-opacity=".15686" d="m101.38 86.811l0.44 8.574 1.73 1.105 8.57 4.07 0.13-12.556-3.09 2.077-2.92-2.121-1.99 2.387-2.87-3.536z"/>
    <path id="path3047" fill="url(#linearGradient3055)" d="m38.283 19.664l2.171 3.638 1.56 2.141 2.018 2.263 0.886 0.672 2.355 1.682-0.795-0.031s-0.673-0.061-1.07-0.152c-0.398-0.092-2.966-1.591-3.272-1.682-0.306-0.092-2.263-1.621-2.079-1.223 0.183 0.397 1.406 2.935 1.406 2.935l1.407 2.599 2.018 2.508-0.887 0.03-2.171-0.948-0.978-0.581-2.722-1.957-0.764-3.638-0.031-2.11 0.123-2.691 0.397-2.324 0.428-1.131z"/>
    <path id="path3057" fill="url(#linearGradient3059)" d="m38.011 38.876l2.335 2.075 2.811 2.854 3.892 2.509-0.563 0.389-2.464 0.043-2.984-1.168-2.897-1.21-0.606-1.211-0.173-1.687 0.346-1.729 0.303-0.865z"/>
    <path id="path3061" d="m32.476 56.605l-3.373-1.773-4.627-3.589-0.26 0.952-0.216 0.691 0.346 1.211 0.778 0.217 2.552 1.254 2.032 0.821 1.124 0.216h1.644z" fill="url(#linearGradient3063)"/>
    <path id="path3065" d="m24.303 58.681l-0.303 1.514 0.043 1.427 0.389 1.556 5.06 1.946 2.162 0.26-1.557-0.995-1.47-1.297-1.686-1.687-2.119-2.248-0.519-0.476z" fill="url(#linearGradient3067)"/>
  </g>
  <g id="layer1">
    <path id="path2308" fill-rule="evenodd" d="m38.094 16.938v2.343c-1.006 4.039-1.262 9.244-0.094 12.438l-0.031 6.625c-0.728 1.963-1.095 4.304-0.063 6.094v2.437l-10.375-4.5-0.125 1.687-1.344-0.718 0.719 2.218-2.719-0.843 1.313 1.531 11.844 5.562-0.125 5.438 0.937-0.062v1.312l1.813 0.469 0.75 3.375 0.281-8.813 27.687 13.031c-2.725 2.447-5.502 4.868-8.437 7.188l-6.719-3.125c-2.26 0.259-4.92 1.213-7.781 2.75l-1.156-0.875 2.281-2.188 0.469-0.781-0.5-1.406c-2.415 1.241-4.703 2.641-6.907 4.156l-12.531-5.75v-2.062c1.544 0.6 3.117 1.104 4.719 0.969-2.126-1.029-3.486-2.358-4.719-3.75v-3.438l-2.219-0.875 1.563-0.281-0.406-0.625 1.031-0.125v-0.813c1.625 0.831 3.273 1.583 5.438 1.157-1.803-1.048-3.701-2.165-5.438-3.407v-4.469c-0.167 0.068-0.417 0.507-0.594 0.344-0.326-0.299-0.599-1.325-0.906-1.156-0.22 0.121 0.06 1.285-0.156 1.812-0.123 0.299-0.713-0.328-0.844-0.25l-0.312 0.532c-0.004 0.35 0.002 0.543 0 0.875-0.255 1.11-0.761 2.251-0.126 3.25 0.186 1.246 0.095 2.853 0.094 4.219-0.39 0.043-0.864 3.664-0.062 4.874-0.012 0.619-0.014 1.158-0.032 1.844l-2.5-1.156-1.031 0.531 0.407 1.25-4.157-0.062-0.906 0.469 7.906 3.968 0.031 2.875 1-0.312 0.313 0.843h0.781l0.75 1.219 0.188-3.125 8.094 4.063c-5.186 4.131-9.957 8.814-14.75 13.437 0.219 0.534 1.188 0.318 1.468 0.656-0.004 0.456 0.22 1.014 0.282 1.407l-3.532 1.75 0.032 0.125 3.25 0.094-1.032 1.343 2.125-0.25-3.812 2.781c2.781-0.138 5.569-0.156 8.375-0.124 10.659 6.062 17.404 6.652 23.937 5.782 0.909-0.12 1.834-0.28 2.781-0.47 5.491-1.11 11.714-3.256 19.594-4.812 2.226-0.237 4.468-0.541 6.719-0.938 7.171-5.114 13.397-11.171 19.435-17.562-0.084-0.991-0.251-1.794-0.498-2.813 0.598-0.735 0.958-0.733 1.218-1.375 0.01-0.29-0.889-0.578-0.936-0.906-0.192-1.122-0.181-1.783-0.125-2.188l0.187-0.25 2.784 1.156 0.19-1.406h0.12l-0.88-1.937c0.27-0.161 0.56-0.409 0.79-0.688 0.68-0.11 1.6 0.417 2.28 0.281 0.51-0.133 0.7-1.161 1.09-1.468 1.03 0.06 1.8 0.42 2.56-0.125l7.66-15.844-0.41-2.313-0.12-0.75h-0.03c-1.67-8.563-3.01-13.717-13.44-19.406-0.83 0.303-1.63 0.64-2.41 1l-1.34-1.062 1.63-2.125-0.974-0.344-0.344-1.281-3.843 5 1.312 0.031 0.313 0.781 0.718-0.625 0.563 0.625c-1.231 0.689-2.385 1.463-3.469 2.313l-1.844-1.531 0.563-0.594-0.063-0.782-0.874-0.781-0.094 0.219c-3.135 2.431-5.456 3.947-7.25 6.781l-7.063-3.187c-0.195-0.07-0.95 2.913-1.062 2.844l0.031-2.438-0.594 0.406-0.062-1.594-3.813-1.718-2 0.094 0.844 1-1.594-0.344 0.188 1-1.344-0.156-1.781 0.593 20.281 9.688-5 12.219c-3.105 2.338-5.99 4.834-8.844 7.374l-18.187-7.937-1.094 1.563-0.312-2.157-0.782 1.219-0.312-1.719-11.625-5.062 0.031-2.563c2.138 1.013 4.275 1.998 6.688 0.813-2.609-1.28-4.648-2.963-6.594-4.875l0.062-4.406-0.5-0.626 0.188-0.75-0.625-0.468 1-0.532 0.031-0.937c1.21 0.801 2.455 1.437 3.812 1.281-2.002-2.224-2.861-4.084-3.75-5.937l0.032-1.281c1.971 1.176 3.856 2.526 6.437 2.281-3.271-1.908-5.02-3.82-6.375-5.781l0.032-2.563-1.063-4.125-0.687 1.531-0.25-1.469-0.563 1.25-0.781-2.124zm0.187 0.906l0.344 1.75 0.531-0.625 0.532 1.062 0.562-1.687 1 3.937c-0.014 0.636-0.019 1.26-0.031 1.875-1.019-1.52-1.84-3.062-2.938-4.687v-1.625zm12.094 1.594l-0.375 3.624 5 13.532 0.781-3.063 1.125 1.688 0.719-4.157-3.031-6.531-1.875 3.875 0.593-5.156-1.312-0.438-1.625-3.374zm-12.094 0.593c2.311 3.494 4.096 7.279 8.5 9.688-1.738 0.884-4.911-2.201-7.062-2.969 1.199 2.279 2.778 6.454 4.843 8.156-2.738-0.273-4.694-2.266-6.281-3.344-0.599-2.138-1.487-8.249 0-11.531zm12.407 0.219l0.781 2.781 1.406 0.407-0.219 4.781-2.218-5.063 0.25-2.906zm3.718 4.906l2.969 6.25-0.656 2.844-1.125-2.344-0.594 3.594-2.188-7 1.594-3.344zm44.594 0.406l0.156 0.907 1.004 0.375-1.941 2.281 1.343 1.031c-0.371 0.181-0.734 0.368-1.093 0.563l-0.938-0.781-0.562 0.562-0.25-0.75-0.813 0.125 3.094-4.313zm-58.594 1.844c0.242 0.13 0.482 0.267 0.719 0.406-0.006 0.32-0.026 0.643-0.031 0.969-0.222-0.457-0.433-0.907-0.688-1.375zm62.034 2c0.41 0.22 0.8 0.43 1.18 0.656-7.695 4.535-11.69 9.13-14.182 13.469l-1.344-1.531c1.821-3.053 3.398-5.337 5.344-7.219h0.031c0.005-0.005-0.005-0.026 0-0.031 2.21-2.128 4.897-3.739 8.971-5.344zm-9.94 0.625l0.438 0.407 0.031 0.656-0.563 0.594 1.875 1.812c-0.309 0.252-0.609 0.516-0.906 0.781l-2.281-1.5-1.688 2.094 1.719 1.687c-0.391 0.446-0.792 0.901-1.156 1.376-0.124-0.113-0.546-0.369-2.188-1.219l-2.375 2.687-0.218-0.906-0.813 0.25c1.817-3.969 4.329-5.769 8.125-8.719zm11.38 0.188c0.7 0.422 1.37 0.868 2 1.312-4.68 3.634-8.725 5.903-15.38 13.219l-0.969-1.094c2.468-4.295 6.637-8.929 14.349-13.437zm-31.318 0.812l3.719 1.75-0.125 1.75 0.625-0.437 0.157 2.812 1.156-3.281 6.812 3.219c-0.38 0.635-0.756 1.331-1.094 2.125l0.344 0.219c0.025-0.059 0.069-0.099 0.094-0.157l0.75-0.062 0.469 0.937 1.593-2.031 2.219 1.031c-0.708 1.007-1.37 2.06-1.969 3.188l-19.562-9.125 1.062-0.281 1.344 0.062-0.218-0.938 1.874 0.532-0.968-1.219 1.718-0.094zm33.438 0.594c0.8 0.576 1.52 1.172 2.19 1.781-6.09 4.145-11.222 8.631-16.034 13.219l-1.594-1.813c6.518-7.142 10.738-9.539 15.438-13.187zm-67.625 0.313c0.889 0.513 1.749 1.152 2.625 1.75-0.009 0.34-0.024 0.631-0.031 1-0.004 0.206-1.027 0.414-1.031 0.624-0.004 0.182 0.628 0.316 0.624 0.5-0.005 0.27-0.213 0.505-0.218 0.782l0.562 0.562-0.094 4.156c-0.797-0.795-1.593-1.639-2.406-2.5l-0.031-6.874zm52.719 1.25l2 1.343c-0.581 0.534-1.155 1.102-1.688 1.688l-1.562-1.531 1.25-1.5zm17.156 0.281c0.62 0.574 1.2 1.149 1.72 1.75-9.01 7.256-17.498 14.669-25.908 22.031l-1.124-0.281 0.468 0.875c-13.452 11.779-26.715 23.445-41.468 34.312-0.893-0.159-1.778-0.328-2.657-0.5l20.969-17.468 0.219 0.093c8.047-6.269 13.551-12.62 22.031-18.875h0.031c0.005-0.003-0.005-0.027 0-0.031 3.235-2.384 6.187-5.279 10.594-7.625l-0.906-1.031c4.796-4.573 10.001-9.144 16.031-13.25zm1.78 1.812c0.53 0.62 1.01 1.263 1.44 1.907-6.07 4.949-11.963 9.898-17.751 14.843l-0.313-1.156-0.781 2.125c-1.947 1.666-3.88 3.306-5.813 4.969l-2.624-0.688c8.384-7.373 16.862-14.76 25.842-22zm-22.28 1.719l1.938 1.312c-0.054 0.073-0.104 0.146-0.157 0.219l-2.219-1 0.438-0.531zm23.78 0.312c0.3 0.456 0.59 0.91 0.85 1.376-5.91 5.345-11.86 10.674-17.88 15.968l-0.719-2.468c5.801-4.961 11.679-9.92 17.749-14.876zm0.94 1.5c0.36 0.664 0.66 1.352 0.94 2.032-6.01 5.501-12.07 10.945-18.191 16.344l-0.688-2.376c6.019-5.302 12.009-10.627 17.939-16zm-74.282 0.313c2.596 2.398 5.136 5.625 8.562 7.031-2.259 1.468-6.266-1.055-8.562-1.875-0.906-1.774-0.917-3.531 0-5.156zm33.812 0.844l-23.812 2.781 3.437 1.719-1.156 0.656 1.687 0.531-2.968 1.969 19.374-3.031-1.25-1.063 4-0.687-2.5-0.532 3.188-2.343zm-1 0.469l-2.906 2 1.562 0.343-2.937 0.781 1.219 0.844-16.876 2.563 2.063-1.531-1.969-0.282 1.688-0.937-3.156-1.157 21.312-2.624zm42.47 0.531c0.22 0.549 0.42 1.098 0.59 1.656-5.4 5.161-10.87 10.275-16.404 15.344l-2.344-0.438-0.062-0.219c6.13-5.402 12.21-10.837 18.22-16.343zm-25.626 1.812l4.25 4.969c-3.562 1.811-6.074 4.314-9.094 6.531l4.844-11.5zm26.276 0.063c0.21 0.68 0.39 1.373 0.54 2.062-4.61 4.624-9.27 9.177-13.97 13.625l-2.846-0.531c5.476-4.995 10.916-10.036 16.276-15.156zm-86.432 0.062l24.781 10.782 0.312 1.687 0.688-0.375 0.562 1.906 0.75-1.906 0.969 0.125 17.188 7.5c-1.315 1.173-2.626 2.352-3.938 3.531l-43.156-20.218-0.844-0.782 2.781 1.032-1.156-1.688 1.187-0.125-0.124-1.469zm10.781 1.688c0.768 0.253 1.526 0.611 2.281 0.968l-0.062 2.532-2.219-0.969v-2.531zm76.251 0.468c0.12 0.553 0.19 1.101 0.28 1.657-4.11 4.145-8.24 8.172-12.38 12.156l-1.78-0.313c4.72-4.404 9.36-8.897 13.88-13.5zm0.31 1.813c0.09 0.551 0.13 1.104 0.19 1.656-3.28 3.629-6.6 7.243-10 10.813l-2.38-0.438c4.07-3.935 8.13-7.938 12.19-12.031zm-89.186 1.5c0.178-0.145 0.572 1.161 0.75 1.094l0.344-0.25 0.031 3.843c-0.803-0.586-1.563-1.206-2.25-1.843 0.014-0.219 0.015-0.4 0.031-0.625l0.219-0.688 0.781 0.156 0.094-1.687zm89.406 0.406c0.01 0.136 0.05 0.27 0.06 0.407-0.6 1.232-1.23 2.436-1.9 3.624-1.18 1.5-5.45 6.845-11.53 13.782l-0.35-3.219c0.78-0.795 1.57-1.578 2.35-2.375l3-1.344-1.47-0.281c3.34-3.503 6.61-7.029 9.84-10.594zm0.59 0.719l0.25 1.969c-2.52 5.429-4.62 10.409-7.65 15.219-0.46 0.346-1.65 0.257-2.22 0.312-0.48 0.206-0.78 1.103-1.19 1.406-0.75-0.432-1.33-0.328-2.15-0.187 4.46-5.206 8.7-10.997 12.96-18.719zm-91.34 2.031c2.18 1.765 4.608 3.711 7.375 4.969-1.838 0.174-5.51-1.668-7.406-2.531-0.618-0.945-0.025-1.648 0.031-2.438zm13.312 0.563l2.813 1.312-0.125 7.813-0.562-2.781-1.626-0.407-0.093-1.187-0.781 0.125 0.374-4.875zm55.594 0l0.344 1.312-2.625 6.875c-0.072-0.057-0.143-0.666-0.219-1.031l2.5-7.156zm-0.906 1.218l-1.719 4.626c-0.318 0.276-0.651 0.535-0.969 0.812l-2.812-0.719c1.828-1.575 3.66-3.141 5.5-4.719zm1.312 0.407l0.626 2.437-2.032 1.938 1.406-4.375zm18.878 0.281c-2.97 5.041-6.53 9.759-10.6 14.438l-0.18-1.563c5.44-6.2 9.07-10.725 10.78-12.875zm-88.128 0.312c0.835 0.283 1.624 0.66 2.407 1.063v0.719l-1.031 0.312 0.312 0.594-1.625 0.344 2.375 0.968v3.032c-0.809-0.935-1.597-1.875-2.5-2.782-0.01-1.389 0.017-2.821 0.062-4.25zm69.907 2.032l0.406 1.594 0.219 0.937-3.438 3c-0.477-0.404-0.936-0.839-1.406-1.281l1.219 0.406 0.843-2.656 2.157-2zm-10.688 1.281l6.875 1.75c-0.053 0.383-0.056 0.883-0.187 0.844l-6.407-2.063-0.281-0.531zm-0.343 0.313l1.093 2c-12.871 11.088-25.573 22.092-39.219 32.781-1.03-0.156-2.055-0.354-3.062-0.531 14.703-10.847 27.852-22.52 41.188-34.25zm11.937 0.093l10.405 1.844-1.28 0.469-8.906-1.625-0.219-0.688zm-4.687 0.157l-0.282 0.718-0.406-0.094c0.231-0.206 0.458-0.416 0.688-0.624zm-6.344 0.437l5.094 1.687c1.294 1.307 2.8 2.403 4.374 3.282h0.032c0.517 0.287 1.037 0.575 1.562 0.812 0.169 1.812 0.993 2.171 2.656 1.438l0.188-0.375c0.826 0.206 1.611 0.312 2.37 0.343l0.47 1.876c-4.354 1.013-10.72-3.608-15.121-6.063l-1.625-3zm10.75 0.313l0.781 0.156-0.25 2.718-1.813 1.626c-0.731-0.449-1.405-0.949-2.062-1.5l3.344-2.969v-0.031zm-70.656 0.062c2.149 2.17 4.168 4.818 6.75 6.125-2.518-0.321-4.749-1.274-6.782-2.187-0.553-1.356 0.044-2.74 0.032-3.938zm71.812 0.188l2.344 0.468-0.469 5.5c-0.155 0.249-0.299 0.47-0.469 0.625-1.132 0.452-1.348 0.031-1.812-1l0.406-5.593zm2.656 0.531l1.654 0.343-1.935 2 0.281-2.343zm-14.312 0.343l1.187 2.219c-12.025 10.447-24.222 20.761-36.469 30.938-1.283-0.143-2.541-0.284-3.781-0.469 13.597-10.657 26.254-21.642 39.063-32.688zm16.096 0.032l1.84 0.375-0.94 0.937-0.81 0.313 0.03 0.187-0.19 0.5-2.308 2.375 0.313-2.5 2.065-2.187zm2 0.406l0.93 0.188-1.71 0.624 0.78-0.812zm0.75 0.688c-0.65 0.667-1.29 1.333-1.94 2l-0.12-1.094 2.06-0.906zm-7.815 0.812l-0.219 2.281c-0.517-0.225-1.003-0.502-1.468-0.781l1.687-1.5zm-9.375 0.125c0.957 0.445 2.01 1.072 3.094 1.75l-1.844 1.656-0.094-0.812 0.156-0.188-1.312-2.406zm-0.406 0.313l1.062 2c-11.145 9.72-22.432 19.37-33.812 29.124-1.203-0.083-2.373-0.186-3.532-0.312 12.232-10.163 24.337-20.42 36.282-30.812zm15.036 0.031l0.71 6.469-1.06-5.282 0.35-1.187zm-0.38 0.281l-0.31 0.875 0.4 1.844c-0.825-0.055-1.596-0.171-2.309-0.313v-0.125l0.031-0.031 2.188-2.25zm-75.906 0.656c0.796 0.288 1.618 0.613 2.437 0.938v2.062l-2.406-1.125c-0.012-0.731-0.019-1.21-0.031-1.875zm64.844 0.532c0.736 0.461 1.477 0.933 2.25 1.406l-5.563 4.937-2.937-0.125 4.406-3.594-0.094-0.874 1.938-1.75zm-67.438 0.406l17.5 8.125c-1.396 0.97-2.731 2.009-4.062 3.062l-18.876-9.437 0.532-0.25 4.5 0.187-0.688-1.312 1.094-0.375zm64.625 0.5l-4.625 5.5 1.812 0.125c-8.785 7.827-17.673 15.588-26.624 23.312-1.331-0.029-2.635-0.133-3.907-0.219 11.212-9.61 22.344-19.134 33.344-28.718zm0.406 0.312l0.188 1.25-4.5 3.719h-0.094l4.406-4.969zm4.781 0.25c0.776 0.472 1.551 0.941 2.344 1.344l-1.625 1.688-0.406-0.063 0.75-1.844-6.094 3.781h-0.312l5.343-4.906zm2.5 1.406c0.462 0.231 0.944 0.441 1.407 0.626l-2.031 2.062-1.032-0.25 0.656-0.688-0.562-0.093 1.562-1.657zm-2.187 0.5l-0.219 1.126 0.813 0.312-0.75 0.438 1.281 0.468-3.094 2.906-0.875-2.156-2.062-0.094 4.906-3zm3.75 0.188c0.867 0.335 1.712 0.562 2.563 0.656l-2.438 2.688-1.438-1.219-3.281 5.719-0.906-2.219 5.5-5.625zm5.215 0.438l0.22 0.75-1.591 1.843h-0.031l-2.657 1.188-0.843-0.719 2.624-2.812c0.776 0.046 1.538-0.004 2.278-0.25zm-54.715 0.843l0.563 0.813-0.313 0.468-2.719 2.438 1.219 1.156c-0.594 0.33-1.204 0.685-1.813 1.063l-2.343-1.125-3.781 2.906 2 1.094c-0.575 0.437-1.173 0.872-1.75 1.344l-1.844-1.063-3.063 2.719 1.844 1.031c-0.626 0.577-1.255 1.168-1.875 1.781l-1.812-0.937-2.844 2.625 1.844 1.25c-0.362 0.397-0.707 0.81-1.063 1.218l-2.156-1.093-3.563 2.625 1.406 1.218-1.406 0.594c-0.436-0.326-0.485-0.799-0.656-1.281-0.289-0.394-0.765-0.312-0.906-0.625 7.824-6.78 14.575-14.627 25.031-20.219zm54.965 0.063l0.1 0.344 1.28 1.75-2.751-0.376 1.371-1.718zm-6.621 1.344l2.25 1.874c-0.04 0.044-0.085 0.082-0.125 0.126-6.137 6.686-13.412 13.334-19.719 19.75-1.926 0.375-3.792 0.686-5.594 0.937 6.384-6.053 12.723-12.128 18.938-18.281l0.812 1.968 3.438-6.374zm-70.219 0.187l2.344 1.156-0.063 2.75-0.469-1h-0.718l-0.469-0.812-0.719 0.219 0.094-2.313zm59.469 0.094l3.469 0.25c-8.63 7.669-17.43 15.269-26.25 23.031-1.307 0.032-2.596 0.057-3.844 0.031 9.002-7.768 17.819-15.503 26.625-23.312zm3.562 0.25l1.375 0.093 0.344 0.813c-7.804 7.312-15.652 14.514-23.469 21.875-1.42 0.11-2.806 0.21-4.156 0.25 8.781-7.771 17.356-15.246 25.906-23.031zm12.188 0.156l2.721 0.219 0.06 1.187-2.969-1.312 0.188-0.094zm-46.375 0.25l0.531 0.219c-9.441 5.212-16.653 11.699-23.219 18.531-0.877-0.185-1.743-0.384-2.625-0.563 5.957-6.935 13.252-14.944 25.313-18.187zm45.875 0l0.406 0.156c-0.095 0.108-0.187 0.206-0.281 0.313-0.359 0.404-0.707 0.794-1.063 1.187l-0.843-0.719 1.781-0.937zm-7.313 0.219l-1.594 1.625-0.031-0.094 1.625-1.531zm-37.906 0.062l3.312 1.469c-7.917 5.656-15.865 11.518-22.281 17.906-1.302-0.274-2.608-0.538-3.906-0.812 6.455-6.704 13.609-13.449 22.875-18.563zm35.312 0.406l1.094 2.594c-6.261 6.224-12.643 12.385-19.094 18.5-1.755 0.241-3.444 0.428-5.093 0.563 7.725-7.274 15.416-14.423 23.093-21.657zm10.094 0.219c0.052 0.617 0.026 1.377 0.094 1.844 0.043 0.295 0.82 0.594 0.81 0.781-0.17 0.459-1.024 0.936-1.185 1.406 0.344 0.808 0.228 1.423 0.187 2.219-4.843 5.516-10.939 11.17-19.031 17.438-21.685 4.741-43.195-0.783-59.406 0.719l2.906-2.282-1.812-0.062 1.187-1.719-3.718 0.469c2.509-1.03 5.095-1.865 7.5-3.156 14.752 4.351 29.115 5.251 43.937 3.812 3.204-0.311 6.433-0.731 9.687-1.25 6.741-8.068 12.186-12.743 18.844-20.219zm-2.281 0.157l0.969 0.812c-5.916 6.51-11.515 11.657-17.875 18.312-0.972 0.218-1.904 0.409-2.844 0.594 6.656-6.405 13.325-12.733 19.594-19.531 0.056-0.06 0.101-0.128 0.156-0.187zm-39.656 0.75l2.593 1.156-21.124 17.5c-1.198-0.236-2.381-0.502-3.563-0.75 6.361-6.302 14.139-12.187 22.063-17.844l0.031-0.062zm-16.531 1.031l2 0.969c-1.145 0.726-2.295 1.554-3.469 2.437l-1.781-0.937 3.25-2.469zm-5.376 4.281l1.594 0.938c-0.846 0.7-1.687 1.416-2.531 2.187l-1.625-0.844 2.562-2.281zm-4.781 4.594l1.469 0.812c-0.774 0.773-1.555 1.581-2.312 2.406l-1.719-1.124 2.562-2.094zm71.529 2.937l-1.15 0.407 0.18 8.531c-0.73 0.274-1.341-0.277-1.996-0.531-1.532-0.605-3.063-0.682-4.594-0.626 2.527 0.262 4.951 0.652 6.59 1.782 3.8 2.609 6.13 3.216 10.32 5.126 1.69 0.71 3.61 1.24 4.68 2.5-0.39-0.94-1.53-1.61-2.87-2.19l0.5-13.874-1.44 0.563-2.72 1.75-2.15-2.281-1.57 0.656-1.28 1.375-2.5-3.188zm-0.06 0.188l2.44 3.156-0.47 0.531-2.91-3.312 0.94-0.375zm-75.906 1l1.968 0.937c-0.327 0.38-0.646 0.767-0.968 1.156l-2.625 1.094-1-1.156 2.625-2.031zm81.036 0.219l2.12 2.218-0.5 0.344-2.66-1.969 1.04-0.593zm6.34 0.031l-0.5 13.471c-0.31-0.13-0.62-0.25-0.94-0.38l0.25-12.435 1.19-0.656zm-12 0.406l2.12 2.719-0.03 6-1.75-0.844-0.34-7.875zm4.4 0.594l1.44 1.093-0.15 8.782-3.41-1.656 0.09-5.782 0.25 0.313 1.78-2.75zm5.72 0.312l-0.09 11.659-1.69-0.815 0.16-9.781 1.62-1.063zm-4.12 0.907l1.25 0.968 1.06-0.687-0.28 9.5-2.16-1.031 0.13-8.75zm-78.782 7.5c0.663 0.012 1.334 0.044 2 0.062l0.343 1.156c-0.758-0.383-1.539-0.775-2.343-1.218zm2.187 0.062c1.206 0.034 2.414 0.076 3.625 0.125l0.875 2.995c-1.299-0.514-2.679-1.116-4.125-1.839l-0.375-1.281zm3.875 0.156c1.096 0.046 2.181 0.072 3.281 0.125l0.907 4.099c-1.032-0.31-2.095-0.66-3.219-1.1l-0.969-3.124zm3.469 0.156c1.054 0.052 2.129 0.102 3.187 0.157l1.063 4.751c-1.032-0.18-2.1-0.43-3.219-0.75l-1.031-4.158zm3.437 0.157c1.192 0.061 2.396 0.127 3.594 0.187l0.938 4.934c-1.123-0.03-2.294-0.14-3.5-0.34l-1.032-4.781zm3.938 0.187c1.073 0.054 2.141 0.109 3.218 0.156l0.782 4.658c-1.026 0.09-2.058 0.15-3.125 0.12l-0.875-4.934zm23.437 0.156c-0.958 0.225-1.89 0.456-2.781 0.688l-0.281-0.531c1.017-0.041 2.04-0.091 3.062-0.157zm-20 0.032c1.294 0.056 2.574 0.083 3.875 0.125 0.043 1.309 0.646 2.571 1.032 3.841-0.934 0.2-1.861 0.38-2.782 0.5-0.436 0.06-0.873 0.09-1.312 0.13l-0.813-4.596zm4.031 0.125c1.371 0.043 2.746 0.074 4.126 0.093l0.562 2.818c-1.212 0.33-2.381 0.62-3.531 0.87-0.355-1.15-0.915-2.75-1.157-3.781zm12.719 0l0.313 0.562c-1.274 0.334-2.434 0.671-3.594 1-0.171-0.485-0.332-0.974-0.469-1.469 1.245-0.016 2.498-0.044 3.75-0.093zm-8.375 0.093c1.423 0.019 2.849 0.016 4.282 0 0.148 0.551 0.4 1.021 0.624 1.532-1.518 0.436-2.996 0.836-4.374 1.216l-0.532-2.748zm-31.906 3.528l-17.312 10.16 2.718 0.19-0.968 1.53 2.656-0.22-0.032 1.47c6.177-2.71 6.898-3.96 13.969-5.03l-0.437-1.1 1.5-1.87-1.656-0.53 0.718-1.75-3.25 1.44 2.094-4.29zm-0.906 1l-2.188 4.13 3.563-1.72-0.938 1.75 2 0.19-1.375 1.68-0.187 0.63c-5.275 1.09-7.832 2.79-12.5 4.81l0.5-1.34-3.031 0.47 1.562-1.66-2.4688 0.03 15.063-8.97z"/>
  </g>
  <metadata>
    <rdf:RDF>
      <cc:Work>
        <dc:format>image/svg+xml</dc:format>
        <dc:type rdf:resource="http://purl.org/dc/dcmitype/StillImage"/>
        <cc:license rdf:resource="http://creativecommons.org/licenses/publicdomain/"/>
        <dc:publisher>
          <cc:Agent rdf:about="http://openclipart.org/">
            <dc:title>Openclipart</dc:title>
          </cc:Agent>
        </dc:publisher>
        <dc:title>RPG map symbols: Shipwreck</dc:title>
        <dc:date>2008-01-23T10:56:09</dc:date>
        <dc:description>Part of the fantasy RPG map elements collection (houses and various buildings): a wrecked ship</dc:description>
        <dc:source>http://openclipart.org/detail/11497/rpg-map-symbols:-shipwreck-by-nicubunu</dc:source>
        <dc:creator>
          <cc:Agent>
            <dc:title>nicubunu</dc:title>
          </cc:Agent>
        </dc:creator>
        <dc:subject>
          <rdf:Bag>
            <rdf:li>cartography</rdf:li>
            <rdf:li>clip art</rdf:li>
            <rdf:li>clipart</rdf:li>
            <rdf:li>fantasy</rdf:li>
            <rdf:li>geography</rdf:li>
            <rdf:li>image</rdf:li>
            <rdf:li>map</rdf:li>
            <rdf:li>media</rdf:li>
            <rdf:li>png</rdf:li>
            <rdf:li>public domain</rdf:li>
            <rdf:li>ship</rdf:li>
            <rdf:li>shipwreck</rdf:li>
            <rdf:li>svg</rdf:li>
            <rdf:li>wreck</rdf:li>
          </rdf:Bag>
        </dc:subject>
      </cc:Work>
      <cc:License rdf:about="http://creativecommons.org/licenses/publicdomain/">
        <cc:permits rdf:resource="http://creativecommons.org/ns#Reproduction"/>
        <cc:permits rdf:resource="http://creativecommons.org/ns#Distribution"/>
        <cc:permits rdf:resource="http://creativecommons.org/ns#DerivativeWorks"/>
      </cc:License>
    </rdf:RDF>
  </metadata>
</svg>
