<?xml version="1.0" encoding="UTF-8" standalone="no"?>
<svg
   xmlns:dc="http://purl.org/dc/elements/1.1/"
   xmlns:cc="http://creativecommons.org/ns#"
   xmlns:rdf="http://www.w3.org/1999/02/22-rdf-syntax-ns#"
   xmlns:svg="http://www.w3.org/2000/svg"
   xmlns="http://www.w3.org/2000/svg"
   xmlns:xlink="http://www.w3.org/1999/xlink"
   xmlns:sodipodi="http://sodipodi.sourceforge.net/DTD/sodipodi-0.dtd"
   xmlns:inkscape="http://www.inkscape.org/namespaces/inkscape"
   id="svg2"
   viewBox="0 0 108.79 95.344"
   version="1.1"
   inkscape:version="0.48.2 r9819"
   width="100%"
   height="100%"
   sodipodi:docname="perhaps_ship.svg"
   inkscape:export-filename="/Users/hannibal/Dropbox/FH Sigurd/master/sem2/tt1/pr2/image/perhaps_ship.png"
   inkscape:export-xdpi="1"
   inkscape:export-ydpi="1">
  <defs
     id="defs9">
    <linearGradient
       id="linearGradient3778">
      <stop
         style="stop-color:#b44040;stop-opacity:1;"
         offset="0"
         id="stop3780" />
      <stop
         id="stop3786"
         offset="0.5"
         style="stop-color:#c74949;stop-opacity:0.98268396;" />
      <stop
         style="stop-color:#632424;stop-opacity:0.99215686;"
         offset="0.75"
         id="stop3788" />
      <stop
         style="stop-color:#000000;stop-opacity:1;"
         offset="1"
         id="stop3782" />
    </linearGradient>
    <linearGradient
       id="linearGradient3762">
      <stop
         style="stop-color:#914133;stop-opacity:0.66233766;"
         offset="0"
         id="stop3764" />
      <stop
         style="stop-color:#64645d;stop-opacity:0.84848487;"
         offset="1"
         id="stop3766" />
    </linearGradient>
    <linearGradient
       inkscape:collect="always"
       xlink:href="#linearGradient3762"
       id="linearGradient3776"
       x1="27.027344"
       y1="50.463715"
       x2="43.59375"
       y2="50.463715"
       gradientUnits="userSpaceOnUse" />
    <radialGradient
       inkscape:collect="always"
       xlink:href="#linearGradient3778"
       id="radialGradient3784"
       cx="35.710938"
       cy="48.363545"
       fx="35.710938"
       fy="48.363545"
       r="9.6015625"
       gradientTransform="matrix(1,0,0,1.5288853,0,-25.578767)"
       gradientUnits="userSpaceOnUse" />
    <radialGradient
       inkscape:collect="always"
       xlink:href="#linearGradient3778"
       id="radialGradient3790"
       gradientUnits="userSpaceOnUse"
       gradientTransform="matrix(1,0,0,1.5288853,0,-25.578767)"
       cx="35.710938"
       cy="48.363545"
       fx="35.710938"
       fy="48.363545"
       r="9.6015625" />
    <linearGradient
       inkscape:collect="always"
       xlink:href="#linearGradient3762"
       id="linearGradient3792"
       gradientUnits="userSpaceOnUse"
       x1="27.027344"
       y1="50.463715"
       x2="43.59375"
       y2="50.463715" />
    <radialGradient
       inkscape:collect="always"
       xlink:href="#linearGradient3778"
       id="radialGradient3794"
       gradientUnits="userSpaceOnUse"
       gradientTransform="matrix(1,0,0,1.5288853,0,-25.578767)"
       cx="35.710938"
       cy="48.363545"
       fx="35.710938"
       fy="48.363545"
       r="9.6015625" />
    <linearGradient
       inkscape:collect="always"
       xlink:href="#linearGradient3762"
       id="linearGradient3796"
       gradientUnits="userSpaceOnUse"
       x1="27.027344"
       y1="50.463715"
       x2="43.59375"
       y2="50.463715" />
    <radialGradient
       inkscape:collect="always"
       xlink:href="#linearGradient3778"
       id="radialGradient3798"
       gradientUnits="userSpaceOnUse"
       gradientTransform="matrix(1,0,0,1.5288853,0,-25.578767)"
       cx="35.710938"
       cy="48.363545"
       fx="35.710938"
       fy="48.363545"
       r="9.6015625" />
    <linearGradient
       inkscape:collect="always"
       xlink:href="#linearGradient3762"
       id="linearGradient3800"
       gradientUnits="userSpaceOnUse"
       x1="27.027344"
       y1="50.463715"
       x2="43.59375"
       y2="50.463715" />
  </defs>
  <sodipodi:namedview
     pagecolor="#ffffff"
     bordercolor="#666666"
     borderopacity="1"
     objecttolerance="10"
     gridtolerance="10"
     guidetolerance="10"
     inkscape:pageopacity="0"
     inkscape:pageshadow="2"
     inkscape:window-width="1280"
     inkscape:window-height="688"
     id="namedview7"
     showgrid="false"
     inkscape:zoom="4.9295089"
     inkscape:cx="54.395104"
     inkscape:cy="47.672091"
     inkscape:window-x="0"
     inkscape:window-y="0"
     inkscape:window-maximized="1"
     inkscape:current-layer="svg2" />
  <g
     id="layer1"
     transform="translate(-501.5 -436)">
    <path
       id="path3053"
       d="m566.06 530.04c-2.8152-1.0038-4.624-1.0994-6.7533-0.35714-2.0585 0.71759-4.4208 0.65092-8.0853-0.22817-5.4484-1.307-18.993-1.5117-24.664-0.37263-1.9039 0.38237-4.9768 0.13469-7.125-0.57429-2.8985-0.95658-4.5853-0.98-7.2497-0.10065-1.9098 0.63029-4.1366 0.89109-4.9485 0.57955-1.3172-0.50547-6.4517-13.213-5.6521-13.989 0.17761-0.17226 4.447 0.75743 9.4875 2.066s11.094 2.5042 13.453 2.657l4.2882 0.27775 1.1984-5.2894c0.65914-2.9092 1.4525-7.8592 1.7631-11 0.31056-3.1408 0.80317-7.2856 1.0947-9.2106 0.2915-1.925 1.2195-9.35 2.0622-16.5 2.3462-19.907 4.5782-33.899 5.575-34.95 0.54155-0.57097 0.90105 0.95983 0.90105 3.8368 0 4.7364-2.666 28.718-3.5144 31.613-0.24177 0.825-0.69007 3.75-0.99621 6.5s-0.99149 8.5882-1.523 12.974c-1.3948 11.508-1.2658 15.526 0.49844 15.526 2.1679 0 3.0643-2.4294 4.9812-13.5 0.95233-5.5 2.0846-11.901 2.5162-14.225 0.43159-2.3239 0.72915-10.086 0.66123-17.25-0.0941-9.9271 0.17856-13.025 1.1464-13.025 0.69843 0.00016 2.9484-1.1199 5-2.489 8.0038-5.3414 8.5949-5.6082 4.7301-2.1351-2.2 1.9771-4.5074 3.6014-5.1276 3.6095-0.62016 0.008-1.6878 0.68988-2.3724 1.5149-2.1934 2.6428-0.008 1.6315 8.6051-3.9831 4.6265-3.0157 9.4205-5.7362 10.653-6.0457 2.2217-0.55764 2.2418-0.46239 2.2732 10.733 0.0268 9.5947 0.46073 12.648 2.8812 20.278 3.1558 9.9469 5.5913 13.595 17.403 26.066 6.9765 7.3658 7.5997 8.3358 5.9982 9.336-0.98298 0.61388-3.3684 1.1162-5.3008 1.1162-1.9325 0-3.5136 0.36-3.5136 0.8 0 1.8877 2.6904 3.2 6.5604 3.2 6.9639 0 13.44 1.1954 13.44 2.4809 0 0.665 0.9 2.0236 2 3.0191 3.3196 3.0042 1.9017 8.3231-1.4724 5.5229-1.0193-0.84597-3.3448-0.87663-8.8123-0.11617-4.0852 0.56819-9.6298 0.7863-12.321 0.48469-3.2061-0.35926-6.403-0.004-9.2696 1.0301-5.2054 1.8778-5.5282 1.8815-10.469 0.11972zm38.723-6.2913c-0.36286-1.5125-0.83341-2.9495-1.0457-3.1933-0.21227-0.24381-4.4807-0.63907-9.4854-0.87835-7.4225-0.35487-9.0148-0.18102-8.6398 0.9433 0.33893 1.0164 2.5388 1.3784 8.3761 1.3784 7.2505 0 7.9995 0.18927 8.9036 2.25 1.3837 3.1539 2.6853 2.8098 1.8912-0.5zm-7.1909 1.0669c-0.72188-0.28887-1.5844-0.25335-1.9167 0.0789-0.33229 0.3323 0.25834 0.56864 1.3125 0.52522 1.165-0.048 1.4019-0.28494 0.60417-0.60416zm-17.319-2.6589c1.5364-1.8512 0.33926-2.7342-2.7673-2.0412l-2.6015 0.58038 3-2.5626c1.65-1.4094 3.3375-2.5788 3.75-2.5986s0.75-0.55334 0.75-1.1857c0-0.83305-2.5479-0.96022-9.25-0.46167-5.0875 0.37845-15.604 0.83332-23.371 1.0108-7.7664 0.17751-14.629 0.63681-15.25 1.0207-1.496 0.92454-1.4447 4.267 0.0799 5.2092 0.66508 0.41105 9.3276 1.0375 19.25 1.392 9.9224 0.35458 19.673 0.71983 21.668 0.81167 2.0058 0.0923 4.1255-0.43296 4.7413-1.175zm-57.669-0.85799c-0.93333-0.93333-1.4667-0.93333-2.4 0-0.93333 0.93333-0.66667 1.2 1.2 1.2s2.1333-0.26667 1.2-1.2zm27.21-11.528c-1.655-2.4387-2.4792-4.946-2.3834-7.25 0.17902-4.3061-0.93866-8.1943-2.1418-7.4507-1.079 0.66683-0.0143 11.143 1.4156 13.929 1.0568 2.0591 3.6474 4.412 4.9196 4.4682 0.39593 0.0175-0.41858-1.6458-1.81-3.6962zm13.59 2.1749c0-0.30418-1.125-2.2086-2.5-4.2321s-2.5-4.6136-2.5-5.7558-0.66069-2.9502-1.4682-4.0179c-0.8075-1.0676-1.4825-2.7286-1.5-3.6911s-0.52994-1.75-1.1388-1.75c-0.60884 0-0.87932 0.59328-0.60107 1.3184 0.27826 0.72512 0.13997 3.3126-0.3073 5.75-0.68488 3.7322-0.51112 4.7139 1.1011 6.2205 1.0529 0.98393 1.9143 2.4241 1.9143 3.2003 0 0.77624 0.7875 1.87 1.75 2.4306 1.8816 1.0959 5.25 1.4341 5.25 0.52705zm14.75-3.8745c-0.9625-0.71111-1.75-1.7693-1.75-2.3514 0-0.58218-1.4739-2.4487-3.2753-4.1479-6.7234-6.3417-11.725-20.373-11.725-32.894 0-6.2975 0.31829-8.1795 1.3834-8.1795 1.185 0 2.5578-2.7689 2.603-5.25 0.0273-1.5027-1.8537-0.70182-2.3487 1-0.27994 0.9625-0.42544 0.43926-0.32332-1.1628 0.34628-5.4326-2.1228-3.9956-2.759 1.6058-2.4866 21.892-0.0167 33.378 9.5101 44.229 1.614 1.8382 2.9346 3.6974 2.9346 4.1315 0 0.43409 0.74474 1.6122 1.655 2.618 1.3276 1.467 1.3771 1.8485 0.25 1.9284-0.77275 0.0548-0.27999 0.4367 1.095 0.84861 3.2545 0.97495 5.1126-0.63035 2.75-2.3758zm5.25-0.57244c0-0.55-0.47656-1-1.059-1-0.58246 0-0.7809 0.45-0.44098 1s0.81648 1 1.059 1c0.24254 0 0.44098-0.45 0.44098-1zm-9.3982-17.595c-0.29649-0.77264-0.96106-1.4048-1.4768-1.4048-0.94917 0-0.86302 1.078 0.51947 6.5l0.76493 3 0.36576-3.3452c0.20117-1.8398 0.12317-3.9774-0.17332-4.75zm-20.314-10.655c-0.1191-6.1875 0.24871-13.05 0.81735-15.25 2.1678-8.3868 2.1767-8.5 0.67173-8.5-2.9571 0-5.8187 27.237-3.4972 33.287 1.5592 4.0632 2.2104 0.97058 2.0082-9.5366zm3.3163 1.5208c-0.3323-0.33229-0.56864 0.25834-0.52522 1.3125 0.048 1.165 0.28494 1.4019 0.60416 0.60417 0.28887-0.72187 0.25335-1.5844-0.0789-1.9167zm-10-8c-0.3323-0.33229-0.56864 0.25834-0.52522 1.3125 0.048 1.165 0.28494 1.4019 0.60416 0.60417 0.28887-0.72187 0.25335-1.5844-0.079-1.9167zm-25.604 40.077c-0.825-0.27179-2.4904-0.97547-3.7008-1.5637-2.0797-1.0107-8.5442-0.63309-12.844 0.75022-1.7255 0.55507-1.7716 0.47262-0.39282-0.7028 0.85909-0.7324 1.8727-2.2316 2.2524-3.3316 0.64082-1.8561 0.59246-1.8741-0.67221-0.25-1.6395 2.1055-4.0812 2.3364-3.3046 0.31255 0.30339-0.7906 1.0703-3.3638 1.7043-5.7182 2.6776-9.9439 16.283-32.285 26.092-42.844 3.219-3.4653 4.174-4.183 2.5814-1.94-3.1621 4.4535-7.7115 13.799-7.7286 15.877-0.007 0.85957-0.90425 4.4063-1.9937 7.8816-2.8757 9.1735-2.9393 21.407-0.13989 26.894 1.1806 2.3141 2.1465 4.4503 2.1465 4.7472 0 0.63658-1.8879 0.58361-4-0.11223zm-4-18.348c0-0.55-0.47656-1-1.059-1-0.58246 0-0.7809 0.45-0.44098 1s0.81648 1 1.059 1c0.24254 0 0.44098-0.45 0.44098-1zm5-20.118c0-0.55-0.45-0.72189-1-0.38197s-1 1.068-1 1.618 0.45 0.72189 1 0.38197 1-1.068 1-1.618zm41.5-30.264c3.0595-2.5961 5.1174-3.4256 3.9956-1.6104-0.34233 0.55391-2.0564 1.7156-3.809 2.5816l-3.1866 1.5745zm-17.293-4.1938c-1.5117 0.44214-4.7436 0.7844-4.4489-0.22759 0.24889-0.85448 0.2423-1.6565 0.2423-2.6176 0-2.1997 0.22663-0.37109 4.4022-0.21742 6.5773 0.24206 10.709 3.4653 9.2109 2.8455-1.0223-0.27792-1.8654 0.0629-2.7197 0.15088-0.73185 0.26131-1.667 0.0625-2.7875-0.0939-1.1205-0.15641-2.4263-0.27043-3.8993 0.16038z" />
  </g>
  <metadata
     id="metadata5">
    <rdf:RDF>
      <cc:Work>
        <dc:format>image/svg+xml</dc:format>
        <dc:type
           rdf:resource="http://purl.org/dc/dcmitype/StillImage" />
        <cc:license
           rdf:resource="http://creativecommons.org/licenses/publicdomain/" />
        <dc:publisher>
          <cc:Agent
             rdf:about="http://openclipart.org/">
            <dc:title>Openclipart</dc:title>
          </cc:Agent>
        </dc:publisher>
        <dc:title></dc:title>
      </cc:Work>
      <cc:License
         rdf:about="http://creativecommons.org/licenses/publicdomain/">
        <cc:permits
           rdf:resource="http://creativecommons.org/ns#Reproduction" />
        <cc:permits
           rdf:resource="http://creativecommons.org/ns#Distribution" />
        <cc:permits
           rdf:resource="http://creativecommons.org/ns#DerivativeWorks" />
      </cc:License>
    </rdf:RDF>
  </metadata>
  <flowRoot
     xml:space="preserve"
     id="flowRoot2986"
     style="font-size:40px;font-style:normal;font-weight:normal;line-height:125%;letter-spacing:0px;word-spacing:0px;fill:url(#radialGradient3784);fill-opacity:1;stroke:url(#linearGradient3776);font-family:Sans"
     transform="matrix(3.6449122,0,0,2.7392384,-76.529479,-91.175699)"><flowRegion
       id="flowRegion2988"
       style="fill:url(#radialGradient3794);fill-opacity:1;stroke:url(#linearGradient3796)"><rect
         id="rect2990"
         width="54.944"
         height="48.48"
         x="24.643999"
         y="25.452"
         style="fill:url(#radialGradient3790);fill-opacity:1;stroke:url(#linearGradient3792)" /></flowRegion><flowPara
       id="flowPara2992"
       style="font-style:normal;font-variant:normal;font-weight:bold;font-stretch:normal;fill:url(#radialGradient3798);fill-opacity:1;stroke:url(#linearGradient3800);font-family:Sans;-inkscape-font-specification:ClearlyU Bold">?</flowPara></flowRoot></svg>
